<svg width="24" height="24" viewBox="0 0 24 24" fill="none" xmlns="http://www.w3.org/2000/svg">
<path d="M20.25 12.7499C19.7849 12.7506 19.3314 12.8951 18.9516 13.1637C18.5719 13.4322 18.2845 13.8116 18.1289 14.2499H16.2905L14.9616 10.2627C14.9109 10.1108 14.8129 9.97911 14.682 9.8869C14.551 9.79468 14.394 9.74679 14.2339 9.75025C14.0738 9.75371 13.919 9.80833 13.7922 9.90611C13.6653 10.0039 13.5731 10.1397 13.5291 10.2937L11.4427 17.5949L8.98969 2.87618C8.96124 2.70624 8.87515 2.55128 8.74589 2.43735C8.61662 2.32342 8.45207 2.25747 8.27991 2.2506C8.10774 2.24372 7.93846 2.29634 7.80052 2.3996C7.66258 2.50285 7.56441 2.65046 7.5225 2.81759L4.66453 14.2499H2.25C2.05109 14.2499 1.86032 14.3289 1.71967 14.4696C1.57902 14.6103 1.5 14.801 1.5 14.9999C1.5 15.1988 1.57902 15.3896 1.71967 15.5303C1.86032 15.6709 2.05109 15.7499 2.25 15.7499H5.25C5.41725 15.7499 5.57969 15.694 5.7115 15.591C5.84332 15.4881 5.93694 15.3441 5.9775 15.1818L8.10281 6.68009L10.5103 21.1232C10.5381 21.2914 10.6223 21.4451 10.749 21.559C10.8758 21.6729 11.0376 21.7403 11.2078 21.7499H11.2505C11.4133 21.7498 11.5717 21.6967 11.7017 21.5986C11.8316 21.5005 11.9262 21.3627 11.9709 21.2062L14.3053 13.0368L15.0384 15.2371C15.0882 15.3865 15.1837 15.5163 15.3114 15.6084C15.4391 15.7004 15.5926 15.7499 15.75 15.7499H18.1289C18.2664 16.1388 18.5082 16.4825 18.8278 16.7433C19.1474 17.004 19.5326 17.1719 19.9412 17.2286C20.3498 17.2853 20.7661 17.2285 21.1446 17.0645C21.5231 16.9006 21.8493 16.6357 22.0874 16.2989C22.3256 15.9621 22.4665 15.5662 22.4949 15.1547C22.5233 14.7432 22.438 14.3318 22.2483 13.9655C22.0587 13.5991 21.7719 13.292 21.4195 13.0776C21.0671 12.8633 20.6625 12.7499 20.25 12.7499Z" fill="#F9F9F9"/>
</svg>
