<svg width="54" height="31" viewBox="0 0 54 31" fill="none" xmlns="http://www.w3.org/2000/svg">
<path fill-rule="evenodd" clip-rule="evenodd" d="M0.0408694 16.7913C0.464547 22.5686 4.47768 27.1973 12.0803 30.6772C21.1988 20.5193 34.9739 10.2937 53.4055 0C40.7182 5.25532 28.4481 11.9174 16.5949 19.9867C12.4253 16.473 10.6889 13.6455 11.3857 11.5039C12.3565 8.63248 14.71 7.78027 18.4469 8.94744C16.0418 8.5961 14.7734 9.01741 14.6412 10.2113C14.5289 10.9891 14.9886 11.4569 15.4918 11.7932C16.3525 12.3685 17.4686 12.4438 19.2856 12.2591C20.9651 12.1007 22.3638 12.6429 23.4818 13.8858C24.0753 14.2038 24.3742 13.8939 24.3789 12.9562C25.3768 12.9938 26.0134 12.926 26.289 12.753C21.7345 9.9246 18.5317 7.65853 16.6811 5.95502C15.2049 4.88988 17.4069 4.02144 17.5 3.73932C10.6063 2.84002 6.2856 4.83316 4.67123 7.20424C1.26586 10.0439 -0.277672 13.2396 0.0408694 16.7913Z" fill="#F9F9F9"/>
</svg>
