<svg width="62" height="38" viewBox="0 0 62 38" fill="none" xmlns="http://www.w3.org/2000/svg">
<path fill-rule="evenodd" clip-rule="evenodd" d="M43.2582 6.00377C32.9435 8.15559 18.5513 17.0352 0.081543 32.6428C17.7356 13.1534 32.397 2.46197 44.0682 0.571005C53.2429 -0.571573 59.1851 2.33337 61.8948 9.28626C62.8354 14.9909 57.4722 21.1109 45.8047 27.6462C38.4977 31.9499 32.5556 35.3585 27.9781 37.8719C21.7126 35.2374 15.9248 32.0613 10.6145 28.3433C24.2634 17.7646 33.5241 12.4581 38.3963 12.4236C41.5206 11.9208 43.2473 12.9859 43.5765 15.619C43.4781 17.1728 42.5907 18.3929 40.9142 19.2795C41.1407 17.1259 40.2917 15.7316 38.3674 15.0962C35.312 14.5538 33.3442 15.3672 32.4639 17.5363C30.8341 21.863 29.4451 24.3904 28.2965 25.1186C26.2002 26.1507 25.3224 27.0804 25.6632 27.9074C26.0934 29.0026 26.489 29.6417 26.8497 29.8248C27.4207 29.0122 27.9511 28.5087 28.4413 28.3141C28.8765 28.7025 28.4039 29.5837 27.0233 30.9578C27.6134 31.4982 28.3753 31.4594 29.3094 30.8415C38.681 24.7669 44.7776 20.9323 47.5993 19.3375C48.4678 18.931 49.4711 19.4055 50.6089 20.7609C50.8518 19.1391 51.0255 17.1638 51.1296 14.8351C53.4195 10.6981 53.6123 7.90932 51.7083 6.4686C49.1207 5.21973 46.3039 5.06478 43.2582 6.00377Z" fill="#F9F9F9"/>
</svg>
