<svg width="34" height="34" viewBox="0 0 34 34" fill="none" xmlns="http://www.w3.org/2000/svg">
<circle cx="17" cy="17" r="17" fill="#E95258"/>
<path d="M13.5508 14.2904C13.4333 14.4067 13.2746 14.472 13.1092 14.472C12.9438 14.472 12.7851 14.4067 12.6676 14.2904C12.6096 14.2332 12.5635 14.1651 12.532 14.09C12.5006 14.0149 12.4844 13.9342 12.4844 13.8528C12.4844 13.7714 12.5006 13.6907 12.532 13.6156C12.5635 13.5405 12.6096 13.4724 12.6676 13.4152L16.197 9.95626C16.3148 9.84006 16.4736 9.7749 16.6391 9.7749C16.8045 9.7749 16.9634 9.84006 17.0812 9.95626L20.6106 13.4152C20.6686 13.4724 20.7147 13.5405 20.7461 13.6156C20.7776 13.6907 20.7938 13.7714 20.7938 13.8528C20.7938 13.9342 20.7776 14.0149 20.7461 14.09C20.7147 14.1651 20.6686 14.2332 20.6106 14.2904C20.4928 14.4066 20.334 14.4717 20.1685 14.4717C20.003 14.4717 19.8442 14.4066 19.7264 14.2904L16.6377 11.4536L13.5508 14.2904Z" fill="#F9F9F9"/>
<path d="M13.5508 18.806C13.4333 18.9224 13.2746 18.9876 13.1092 18.9876C12.9438 18.9876 12.7851 18.9224 12.6676 18.806C12.6096 18.7488 12.5635 18.6807 12.532 18.6056C12.5006 18.5305 12.4844 18.4499 12.4844 18.3684C12.4844 18.287 12.5006 18.2064 12.532 18.1312C12.5635 18.0561 12.6096 17.988 12.6676 17.9309L16.197 14.4719C16.3148 14.3557 16.4736 14.2905 16.6391 14.2905C16.8045 14.2905 16.9634 14.3557 17.0812 14.4719L20.6106 17.9309C20.6686 17.988 20.7147 18.0561 20.7461 18.1312C20.7776 18.2064 20.7938 18.287 20.7938 18.3684C20.7938 18.4499 20.7776 18.5305 20.7461 18.6056C20.7147 18.6807 20.6686 18.7488 20.6106 18.806C20.4928 18.9222 20.334 18.9873 20.1685 18.9873C20.003 18.9873 19.8442 18.9222 19.7264 18.806L16.6377 15.9693L13.5508 18.806Z" fill="#F9F9F9"/>
<path d="M13.5508 23.3216C13.4333 23.438 13.2746 23.5033 13.1092 23.5033C12.9438 23.5033 12.7851 23.438 12.6676 23.3216C12.6096 23.2645 12.5635 23.1964 12.532 23.1212C12.5006 23.0461 12.4844 22.9655 12.4844 22.884C12.4844 22.8026 12.5006 22.722 12.532 22.6469C12.5635 22.5717 12.6096 22.5036 12.6676 22.4465L16.197 18.9875C16.3148 18.8713 16.4736 18.8062 16.6391 18.8062C16.8045 18.8062 16.9634 18.8713 17.0812 18.9875L20.6106 22.4465C20.6686 22.5036 20.7147 22.5717 20.7461 22.6469C20.7776 22.722 20.7938 22.8026 20.7938 22.884C20.7938 22.9655 20.7776 23.0461 20.7461 23.1212C20.7147 23.1964 20.6686 23.2645 20.6106 23.3216C20.4928 23.4378 20.334 23.503 20.1685 23.503C20.003 23.503 19.8442 23.4378 19.7264 23.3216L16.6377 20.4849L13.5508 23.3216Z" fill="#F9F9F9"/>
</svg>
